<svg width="48" height="49" viewBox="0 0 48 49" fill="none" xmlns="http://www.w3.org/2000/svg">
<g clip-path="url(#clip0_68810_47)">
<path d="M40.875 20C40.6761 20 40.4853 20.079 40.3447 20.2197C40.204 20.3604 40.125 20.5511 40.125 20.75V29C40.125 29.1989 40.204 29.3897 40.3447 29.5304C40.4853 29.671 40.6761 29.75 40.875 29.75C41.0739 29.75 41.2647 29.671 41.4053 29.5304C41.546 29.3897 41.625 29.1989 41.625 29V20.75C41.625 20.5511 41.546 20.3604 41.4053 20.2197C41.2647 20.079 41.0739 20 40.875 20ZM19.3867 7.34453L10.8862 12.0673C10.7126 12.1639 10.5844 12.3256 10.5298 12.5167C10.4753 12.7078 10.4988 12.9128 10.5952 13.0865C10.8757 13.6085 11.4997 13.4428 11.6152 13.3783L20.1157 8.65553C20.2896 8.55886 20.4179 8.39708 20.4725 8.2058C20.5271 8.01451 20.5034 7.80938 20.4067 7.63553C20.3101 7.46168 20.1483 7.33335 19.957 7.27878C19.7657 7.22421 19.5606 7.24786 19.3867 7.34453ZM20.115 40.3445L11.6145 35.6218C11.5284 35.5737 11.4337 35.5432 11.3358 35.5318C11.2378 35.5205 11.1386 35.5286 11.0439 35.5557C10.9491 35.5828 10.8606 35.6284 10.7835 35.6898C10.7064 35.7512 10.6421 35.8272 10.5945 35.9135C10.5466 35.9996 10.5162 36.0942 10.5049 36.192C10.4937 36.2897 10.5018 36.3888 10.5288 36.4835C10.5558 36.5781 10.6012 36.6665 10.6624 36.7436C10.7236 36.8207 10.7994 36.885 10.8855 36.9328L19.386 41.6555C19.5015 41.72 20.0887 41.8835 20.406 41.3638C20.622 41.0105 20.4765 40.5455 20.115 40.3445Z" fill="white" fill-opacity="0.2"/>
<path d="M44.6325 12.6046L24.3825 0.604626C24.2667 0.536133 24.1346 0.5 24 0.5C23.8654 0.5 23.7333 0.536133 23.6175 0.604626L3.3675 12.6046C3.25554 12.671 3.16279 12.7654 3.09835 12.8785C3.03392 12.9916 3.00002 13.1195 3 13.2496V35.7496C3 36.0151 3.14025 36.2604 3.3675 36.3946L23.6175 48.3946C23.7333 48.4633 23.8654 48.4995 24 48.4995C24.1346 48.4995 24.2667 48.4633 24.3825 48.3946L44.6325 36.3946C44.7445 36.3282 44.8372 36.2339 44.9016 36.1208C44.9661 36.0077 45 35.8798 45 35.7496V13.2496C45.0001 13.1195 44.9662 12.9915 44.9017 12.8784C44.8373 12.7653 44.7445 12.6709 44.6325 12.6046ZM36.3592 30.5911L35.6408 31.9081L42.7335 35.7766L24.75 46.4334V37.9996H23.25V46.4334L5.2665 35.7766L12.3593 31.9081L11.6407 30.5911L4.5 34.4859V14.5134L11.6407 18.4081L12.3593 17.0911L5.2665 13.2226L23.25 2.56588V10.2496H24.75V2.56588L42.7335 13.2226L35.6408 17.0911L36.3592 18.4081L43.5 14.5134V34.4866L36.3592 30.5911Z" fill="white" fill-opacity="0.2"/>
<path d="M22.875 17.75H25.125V21.5H22.875V17.75ZM17.25 26.75H19.5V30.5H17.25V26.75Z" fill="#7C43FF"/>
<path d="M24 9.125L10.5 16.625V31.625L24 39.125L37.5 31.625V16.625L24 9.125ZM29.25 17C29.25 16.8011 29.329 16.6103 29.4697 16.4697C29.6103 16.329 29.8011 16.25 30 16.25C30.1989 16.25 30.3897 16.329 30.5303 16.4697C30.671 16.6103 30.75 16.8011 30.75 17V22.25C30.75 22.4489 30.671 22.6397 30.5303 22.7803C30.3897 22.921 30.1989 23 30 23C29.8011 23 29.6103 22.921 29.4697 22.7803C29.329 22.6397 29.25 22.4489 29.25 22.25V17ZM17.25 17C17.25 16.8011 17.329 16.6103 17.4697 16.4697C17.6103 16.329 17.8011 16.25 18 16.25C18.1989 16.25 18.3897 16.329 18.5303 16.4697C18.671 16.6103 18.75 16.8011 18.75 17V22.25C18.75 22.4489 18.671 22.6397 18.5303 22.7803C18.3897 22.921 18.1989 23 18 23C17.8011 23 17.6103 22.921 17.4697 22.7803C17.329 22.6397 17.25 22.4489 17.25 22.25V17ZM21 31.25C21 31.4489 20.921 31.6397 20.7803 31.7803C20.6397 31.921 20.4489 32 20.25 32H16.5C16.3011 32 16.1103 31.921 15.9697 31.7803C15.829 31.6397 15.75 31.4489 15.75 31.25V26C15.75 25.8011 15.829 25.6103 15.9697 25.4697C16.1103 25.329 16.3011 25.25 16.5 25.25H20.25C20.4489 25.25 20.6397 25.329 20.7803 25.4697C20.921 25.6103 21 25.8011 21 26V31.25ZM24.75 31.25C24.75 31.4489 24.671 31.6397 24.5303 31.7803C24.3897 31.921 24.1989 32 24 32C23.8011 32 23.6103 31.921 23.4697 31.7803C23.329 31.6397 23.25 31.4489 23.25 31.25V26C23.25 25.8011 23.329 25.6103 23.4697 25.4697C23.6103 25.329 23.8011 25.25 24 25.25C24.1989 25.25 24.3897 25.329 24.5303 25.4697C24.671 25.6103 24.75 25.8011 24.75 26V31.25ZM26.625 22.25C26.625 22.4489 26.546 22.6397 26.4053 22.7803C26.2647 22.921 26.0739 23 25.875 23H22.125C21.9261 23 21.7353 22.921 21.5947 22.7803C21.454 22.6397 21.375 22.4489 21.375 22.25V17C21.375 16.8011 21.454 16.6103 21.5947 16.4697C21.7353 16.329 21.9261 16.25 22.125 16.25H25.875C26.0739 16.25 26.2647 16.329 26.4053 16.4697C26.546 16.6103 26.625 16.8011 26.625 17V22.25ZM32.25 31.25C32.25 31.4489 32.171 31.6397 32.0303 31.7803C31.8897 31.921 31.6989 32 31.5 32H27.75C27.5511 32 27.3603 31.921 27.2197 31.7803C27.079 31.6397 27 31.4489 27 31.25V26C27 25.8011 27.079 25.6103 27.2197 25.4697C27.3603 25.329 27.5511 25.25 27.75 25.25H31.5C31.6989 25.25 31.8897 25.329 32.0303 25.4697C32.171 25.6103 32.25 25.8011 32.25 26V31.25Z" fill="#7C43FF"/>
<path d="M28.5 26.75H30.75V30.5H28.5V26.75Z" fill="#7C43FF"/>
</g>
<defs>
<clipPath id="clip0_68810_47">
<rect width="48" height="48" fill="white" transform="translate(0 0.5)"/>
</clipPath>
</defs>
</svg>
