<svg width="40" height="40" viewBox="0 0 40 40" fill="none" xmlns="http://www.w3.org/2000/svg">
<path d="M12.54 30.2687C12.9668 30.435 13.4339 30.4663 13.8788 30.3585C14.3238 30.2507 14.7254 30.0088 15.03 29.6652L15.55 29.0819H21.13C21.2 29.0819 21.27 29.1121 21.32 29.1724L24.96 33.2457C25.4 33.7385 26.01 34 26.64 34C26.91 34 27.19 33.9598 27.46 33.8491C27.891 33.6866 28.262 33.395 28.5231 33.0138C28.7842 32.6325 28.9227 32.1799 28.92 31.717V29.3534C28.92 29.2026 29.04 29.0819 29.19 29.0819H31.47C32.4062 29.0819 33.3041 28.7078 33.9661 28.042C34.6281 27.3762 35 26.4732 35 25.5316V13.1307C35 12.1892 34.6281 11.2861 33.9661 10.6203C33.3041 9.95451 32.4062 9.58046 31.47 9.58046H31.43V9.55029C31.43 8.60869 31.0581 7.70566 30.3961 7.03986C29.7341 6.37405 28.8362 6 27.9 6H8.53C7.59379 6 6.69592 6.37405 6.03391 7.03986C5.37191 7.70566 5 8.60869 5 9.55029V21.9511C5 22.4174 5.09131 22.879 5.26871 23.3098C5.4461 23.7405 5.70612 24.1319 6.03391 24.4616C6.3617 24.7913 6.75085 25.0528 7.17913 25.2312C7.60741 25.4096 8.06643 25.5014 8.53 25.5014H10.81C10.96 25.5014 11.08 25.6221 11.08 25.773V28.1365C11.08 29.092 11.65 29.9267 12.54 30.2687ZM10.81 23.4899H8.53C7.69 23.4899 7 22.796 7 21.9511V9.55029C7 8.6954 7.69 8.01149 8.53 8.01149H27.9C28.74 8.01149 29.43 8.6954 29.43 9.55029V21.9511C29.43 22.796 28.74 23.4899 27.9 23.4899H18.87C18.22 23.4899 17.61 23.7716 17.18 24.2443L13.55 28.3175C13.47 28.408 13.36 28.4382 13.25 28.3879C13.14 28.3477 13.08 28.2672 13.08 28.1365V25.773C13.08 24.5158 12.06 23.4899 10.81 23.4899Z" fill="#7C43FF"/>
<path d="M14.006 17.006H16.994V19.994C16.994 20.2608 17.1 20.5167 17.2886 20.7053C17.4773 20.894 17.7332 21 18 21C18.2668 21 18.5227 20.894 18.7114 20.7053C18.9 20.5167 19.006 20.2608 19.006 19.994V17.006H21.994C22.2608 17.006 22.5167 16.9 22.7053 16.7114C22.894 16.5227 23 16.2668 23 16C23 15.7332 22.894 15.4773 22.7053 15.2886C22.5167 15.1 22.2608 14.994 21.994 14.994H19.006V12.006C19.006 11.7392 18.9 11.4833 18.7114 11.2947C18.5227 11.106 18.2668 11 18 11C17.7332 11 17.4773 11.106 17.2886 11.2947C17.1 11.4833 16.994 11.7392 16.994 12.006V14.994H14.006C13.7392 14.994 13.4833 15.1 13.2947 15.2886C13.106 15.4773 13 15.7332 13 16C13 16.2668 13.106 16.5227 13.2947 16.7114C13.4833 16.9 13.7392 17.006 14.006 17.006Z" fill="#7C43FF"/>
</svg>
