<svg width="80" height="80" viewBox="0 0 80 80" fill="none" xmlns="http://www.w3.org/2000/svg">
<path d="M40.0004 8L13.334 24V56L40.0004 72L66.6668 56V24L40.0004 8ZM61.334 52.9792L40.0004 65.7816L18.6676 52.9792V27.0192L40.0004 14.2192L61.334 27.0192V52.9792Z" fill="#7C43FF"/>
<path d="M28 40L40 52L52 40L40 28L28 40ZM40 44.4584L35.5432 40L40 35.5432L44.4584 40L40 44.4584Z" fill="#7C43FF"/>
<path d="M40.0008 22.666C30.4264 22.666 22.668 30.4252 22.668 39.9996C22.668 49.5724 30.4264 57.3332 40.0008 57.3332C49.5736 57.3332 57.3344 49.5724 57.3344 39.9996C57.3344 30.4252 49.5736 22.666 40.0008 22.666ZM40.0008 51.9996C33.3712 51.9996 28.0008 46.6268 28.0008 39.9996C28.0008 33.3708 33.372 27.9996 40.0008 27.9996C46.628 28.0004 52.0008 33.3708 52.0008 39.9996C52.0008 46.6268 46.628 51.9996 40.0008 51.9996Z" fill="#7C43FF"/>
</svg>
