<svg width="40" height="40" viewBox="0 0 40 40" fill="none" xmlns="http://www.w3.org/2000/svg">
<path d="M20 5C17.0333 5 14.1332 5.87973 11.6665 7.52795C9.19972 9.17618 7.27713 11.5189 6.14181 14.2597C5.0065 17.0006 4.70945 20.0166 5.28823 22.9263C5.86701 25.8361 7.29562 28.5088 9.3934 30.6066C11.4912 32.7044 14.1639 34.133 17.0736 34.7118C19.9834 35.2906 22.9994 34.9935 25.7403 33.8582C28.4811 32.7229 30.8238 30.8003 32.472 28.3335C34.1203 25.8668 35 22.9667 35 20C35 16.0217 33.4196 12.2064 30.6066 9.3934C27.7936 6.58035 23.9783 5 20 5ZM20 12.1053C20.4684 12.1053 20.9263 12.2442 21.3158 12.5044C21.7053 12.7647 22.0089 13.1346 22.1881 13.5673C22.3674 14.0001 22.4143 14.4763 22.3229 14.9357C22.2315 15.3952 22.006 15.8172 21.6747 16.1484C21.3435 16.4796 20.9215 16.7052 20.4621 16.7966C20.0026 16.888 19.5264 16.8411 19.0936 16.6618C18.6609 16.4826 18.291 16.179 18.0307 15.7895C17.7705 15.4 17.6316 14.9421 17.6316 14.4737C17.6316 13.8455 17.8811 13.2431 18.3253 12.799C18.7694 12.3548 19.3719 12.1053 20 12.1053ZM21.579 28.6842H18.4211C18.0023 28.6842 17.6007 28.5179 17.3046 28.2217C17.0085 27.9256 16.8421 27.524 16.8421 27.1053C16.8421 26.6865 17.0085 26.2849 17.3046 25.9888C17.6007 25.6927 18.0023 25.5263 18.4211 25.5263V20.7895C18.0023 20.7895 17.6007 20.6231 17.3046 20.327C17.0085 20.0309 16.8421 19.6293 16.8421 19.2105C16.8421 18.7918 17.0085 18.3901 17.3046 18.094C17.6007 17.7979 18.0023 17.6316 18.4211 17.6316H20C20.4188 17.6316 20.8204 17.7979 21.1165 18.094C21.4126 18.3901 21.579 18.7918 21.579 19.2105V25.5263C21.9977 25.5263 22.3993 25.6927 22.6954 25.9888C22.9915 26.2849 23.1579 26.6865 23.1579 27.1053C23.1579 27.524 22.9915 27.9256 22.6954 28.2217C22.3993 28.5179 21.9977 28.6842 21.579 28.6842Z" fill="#7C43FF"/>
</svg>
