<svg width="40" height="40" viewBox="0 0 40 40" fill="none" xmlns="http://www.w3.org/2000/svg">
<path d="M9.1668 5C8.94778 4.99953 8.73083 5.04231 8.52839 5.12591C8.32595 5.2095 8.14201 5.33227 7.98714 5.48714C7.83227 5.64201 7.70951 5.82596 7.62591 6.0284C7.54232 6.23084 7.49953 6.44778 7.5 6.6668V33.3332C7.5 34.1668 8.3332 35 9.1668 35H17.5V30C17.5 29.0768 18.3812 28.3332 19.1668 28.3332H20.8332C21.6188 28.3332 22.5 29.0768 22.5 30V35H30.8332C31.6668 35 32.5 34.1668 32.5 33.3332V6.66722C32.5005 6.4482 32.4577 6.23123 32.3741 6.02879C32.2905 5.82635 32.1677 5.6424 32.0129 5.48753C31.858 5.33266 31.6741 5.20992 31.4716 5.12632C31.2692 5.04273 31.0522 4.99992 30.8332 5.00039L9.1668 5ZM12.5 10H17.5V13.3332H12.5V10ZM22.5 10H27.5V13.3332H22.5V10ZM12.5 20H17.5V23.3332H12.5V20ZM22.5 20H27.5V23.3332H22.5V20Z" fill="#7C43FF"/>
</svg>
