<svg width="64" height="64" viewBox="0 0 64 64" fill="none" xmlns="http://www.w3.org/2000/svg">
<path d="M45.3805 9.5H18.6195C15.803 9.5 13.1019 10.6039 11.1104 12.5687C9.11883 14.5336 8 17.1986 8 19.9774V35.4053C8 38.184 9.11883 40.849 11.1104 42.8139C13.1019 44.7787 15.803 45.8826 18.6195 45.8826H25.2389L30.6283 53.7406C30.7909 53.9747 31.0088 54.1662 31.2632 54.2985C31.5176 54.4309 31.8009 54.5 32.0885 54.5C32.3761 54.5 32.6594 54.4309 32.9138 54.2985C33.1682 54.1662 33.3861 53.9747 33.5487 53.7406L38.9381 45.8826H45.3805C48.197 45.8826 50.8981 44.7787 52.8896 42.8139C54.8812 40.849 56 38.184 56 35.4053V19.9774C56 17.1986 54.8812 14.5336 52.8896 12.5687C50.8981 10.6039 48.197 9.5 45.3805 9.5ZM33.3363 38.9676C33.2584 39.052 33.1691 39.1255 33.0708 39.1858C32.9745 39.2529 32.8705 39.3086 32.7611 39.3517C32.6563 39.3968 32.5463 39.4291 32.4336 39.4478C32.319 39.4607 32.2032 39.4607 32.0885 39.4478C31.8552 39.4447 31.6244 39.4004 31.4071 39.3168C31.3004 39.2736 31.1994 39.2179 31.1062 39.1509C31.0079 39.0906 30.9186 39.0171 30.8407 38.9326C30.5083 38.6067 30.3206 38.1639 30.3186 37.7015C30.3055 37.5884 30.3055 37.4742 30.3186 37.361C30.3375 37.2498 30.3702 37.1413 30.4159 37.038C30.4578 36.9291 30.5143 36.8263 30.5841 36.7324C30.7372 36.575 30.9169 36.445 31.115 36.3482C31.2103 36.2845 31.311 36.229 31.4159 36.1823C31.5251 36.1412 31.6376 36.109 31.7522 36.0863C32.0373 36.0312 32.3317 36.0462 32.6095 36.13C32.8873 36.2137 33.1399 36.3636 33.3451 36.5665C33.4282 36.6457 33.5024 36.7335 33.5664 36.8284C33.6299 36.9246 33.6833 37.027 33.7257 37.134C33.7703 37.2385 33.8058 37.3466 33.8319 37.4571C33.8406 37.5704 33.8406 37.6842 33.8319 37.7976C33.8211 38.2351 33.6442 38.6526 33.3363 38.9676ZM34.6549 30.7603L34.2301 31.1357C33.9869 31.5619 33.8618 32.0437 33.8673 32.5327C33.8673 32.9958 33.6808 33.44 33.3489 33.7675C33.0169 34.095 32.5668 34.2789 32.0973 34.2789C31.6279 34.2789 31.1777 34.095 30.8458 33.7675C30.5139 33.44 30.3274 32.9958 30.3274 32.5327C30.3047 31.1244 30.8017 29.756 31.7257 28.6823C31.8673 28.5426 32.0531 28.3767 32.2743 28.1759C33.3717 27.2067 35.6372 25.1811 35.6372 22.9372C35.6685 22.4706 35.5983 22.0028 35.4315 21.565C35.2647 21.1273 35.005 20.7298 34.6698 20.3991C34.3347 20.0685 33.9318 19.8123 33.4881 19.6477C33.0445 19.4831 32.5703 19.4139 32.0973 19.4448C31.6244 19.4139 31.1502 19.4831 30.7066 19.6477C30.2629 19.8123 29.86 20.0685 29.5248 20.3991C29.1897 20.7298 28.93 21.1273 28.7632 21.565C28.5964 22.0028 28.5262 22.4706 28.5575 22.9372C28.5575 23.4003 28.3711 23.8445 28.0391 24.172C27.7072 24.4995 27.257 24.6834 26.7876 24.6834C26.3182 24.6834 25.868 24.4995 25.5361 24.172C25.2042 23.8445 25.0177 23.4003 25.0177 22.9372C24.9869 22.0117 25.149 21.0899 25.4939 20.2287C25.8388 19.3675 26.3591 18.5853 27.0228 17.9306C27.6864 17.2758 28.4792 16.7624 29.3521 16.4221C30.225 16.0818 31.1593 15.9219 32.0973 15.9523C33.0354 15.9219 33.9697 16.0818 34.8426 16.4221C35.7155 16.7624 36.5083 17.2758 37.1719 17.9306C37.8355 18.5853 38.3559 19.3675 38.7008 20.2287C39.0457 21.0899 39.2078 22.0117 39.177 22.9372C39.1681 26.744 36.115 29.4506 34.6549 30.7603Z" fill="#7C43FF"/>
</svg>
