<svg width="48" height="49" viewBox="0 0 48 49" fill="none" xmlns="http://www.w3.org/2000/svg">
<path d="M47.9286 45.9313L45.1229 39.9702C45.1191 39.9605 45.1146 39.9523 45.1101 39.9432L41.9991 33.3328V7.25C41.9991 7.05109 41.9201 6.86032 41.7794 6.71967C41.6388 6.57902 41.448 6.5 41.2491 6.5H6.74986C6.55094 6.5 6.36018 6.57902 6.21952 6.71967C6.07887 6.86032 5.99986 7.05109 5.99986 7.25V33.332L2.88886 39.9425C2.88436 39.9515 2.87986 39.9598 2.87611 39.9695L0.0711052 45.9313C0.0174436 46.0455 -0.00649499 46.1715 0.00150838 46.2975C0.00951175 46.4235 0.049198 46.5455 0.116888 46.6521C0.184579 46.7587 0.278082 46.8464 0.388731 46.9073C0.49938 46.9681 0.623593 47 0.749855 47H47.2499C47.3761 47 47.5003 46.9681 47.611 46.9073C47.7216 46.8464 47.8151 46.7587 47.8828 46.6521C47.9505 46.5455 47.9902 46.4235 47.9982 46.2975C48.0062 46.1715 47.9823 46.0455 47.9286 45.9313ZM11.4231 45.5H1.93111L4.04911 41H12.6231L11.4239 45.5H11.4231ZM24.7491 45.5V40.25H23.2491V45.5H12.9756L14.1749 41H17.9991C18.198 41 18.3888 40.921 18.5294 40.7803C18.6701 40.6397 18.7491 40.4489 18.7491 40.25C18.7491 40.0511 18.6701 39.8603 18.5294 39.7197C18.3888 39.579 18.198 39.5 17.9991 39.5H14.5746L15.7716 34.985C15.8192 34.7941 15.7898 34.5922 15.6899 34.4227C15.59 34.2532 15.4275 34.1298 15.2374 34.079C15.0473 34.0283 14.8449 34.0542 14.6738 34.1513C14.5027 34.2484 14.3765 34.4088 14.3226 34.598L13.0221 39.5H4.75486L7.2261 34.25H13.4999C13.6988 34.25 13.8895 34.171 14.0302 34.0303C14.1708 33.8897 14.2499 33.6989 14.2499 33.5C14.2499 33.3011 14.1708 33.1103 14.0302 32.9697C13.8895 32.829 13.6988 32.75 13.4999 32.75H7.49986V27.5H8.99986C9.19877 27.5 9.38953 27.421 9.53018 27.2803C9.67084 27.1397 9.74986 26.9489 9.74986 26.75C9.74986 26.5511 9.67084 26.3603 9.53018 26.2197C9.38953 26.079 9.19877 26 8.99986 26H7.49986V20.75H11.9999V19.25H7.49986V14H13.4999C13.6988 14 13.8895 13.921 14.0302 13.7803C14.1708 13.6397 14.2499 13.4489 14.2499 13.25C14.2499 13.0511 14.1708 12.8603 14.0302 12.7197C13.8895 12.579 13.6988 12.5 13.4999 12.5H7.49986V8H16.4999V11.75C16.4999 11.9489 16.5789 12.1397 16.7195 12.2803C16.8602 12.421 17.0509 12.5 17.2499 12.5C17.4488 12.5 17.6395 12.421 17.7802 12.2803C17.9208 12.1397 17.9999 11.9489 17.9999 11.75V8H29.9999V11.75C29.9999 11.9489 30.0789 12.1397 30.2195 12.2803C30.3602 12.421 30.5509 12.5 30.7499 12.5C30.9488 12.5 31.1395 12.421 31.2802 12.2803C31.4208 12.1397 31.4999 11.9489 31.4999 11.75V8H40.4999V12.5H34.4999C34.3009 12.5 34.1102 12.579 33.9695 12.7197C33.8289 12.8603 33.7499 13.0511 33.7499 13.25C33.7499 13.4489 33.8289 13.6397 33.9695 13.7803C34.1102 13.921 34.3009 14 34.4999 14H40.4999V19.25H38.9999C38.8009 19.25 38.6102 19.329 38.4695 19.4697C38.3289 19.6103 38.2499 19.8011 38.2499 20C38.2499 20.1989 38.3289 20.3897 38.4695 20.5303C38.6102 20.671 38.8009 20.75 38.9999 20.75H40.4999V26H35.9999C35.8009 26 35.6102 26.079 35.4695 26.2197C35.3289 26.3603 35.2499 26.5511 35.2499 26.75C35.2499 26.9489 35.3289 27.1397 35.4695 27.2803C35.6102 27.421 35.8009 27.5 35.9999 27.5H40.4999V32.75H34.4999C34.3009 32.75 34.1102 32.829 33.9695 32.9697C33.8289 33.1103 33.7499 33.3011 33.7499 33.5C33.7499 33.6989 33.8289 33.8897 33.9695 34.0303C34.1102 34.171 34.3009 34.25 34.4999 34.25H40.7736L43.2449 39.5H34.9769L33.6126 34.4757C33.5587 34.2865 33.4325 34.1261 33.2614 34.029C33.0903 33.932 32.8879 33.906 32.6978 33.9568C32.5077 34.0075 32.3452 34.131 32.2453 34.3004C32.1454 34.4699 32.116 34.6719 32.1636 34.8628L33.4251 39.5H30.0006C29.8017 39.5 29.6109 39.579 29.4703 39.7197C29.3296 39.8603 29.2506 40.0511 29.2506 40.25C29.2506 40.4489 29.3296 40.6397 29.4703 40.7803C29.6109 40.921 29.8017 41 30.0006 41H33.8249L35.0241 45.5H24.7506H24.7491ZM36.5751 45.5L35.3759 41H43.9499L46.0679 45.5H36.5751Z" fill="white" fill-opacity="0.2"/>
<path d="M24 25.8898L35.2357 19.5695L30.75 17.045L24 13.25L17.25 17.045L12.765 19.5695L24 25.8898ZM23.25 27.1887L12 20.8602V33.5L14.955 35.165L23.25 40.25V27.1887ZM24.75 27.1887V40.25L33.045 35.165L36 33.5V20.8602L24.75 27.1887Z" fill="#9C69ED"/>
</svg>
