<svg width="80" height="80" viewBox="0 0 80 80" fill="none" xmlns="http://www.w3.org/2000/svg">
<path d="M8 8V40C8 51.1352 13.696 60.9352 22.3256 66.6664H8V72H40C51.1352 72 60.9352 66.3048 66.6664 57.6744V72H72V40C72 28.8648 66.3048 19.0664 57.6784 13.3344H72V8H40C28.8648 8 19.0664 13.6944 13.3344 22.3232V8H8Z" fill="#7C43FF"/>
<path d="M40.0004 66.6668C54.7278 66.6668 66.6668 54.7278 66.6668 40.0004C66.6668 25.2729 54.7278 13.334 40.0004 13.334C25.2729 13.334 13.334 25.2729 13.334 40.0004C13.334 54.7278 25.2729 66.6668 40.0004 66.6668Z" fill="#06040B"/>
<path d="M39.9996 18.666C28.2164 18.666 18.666 28.2164 18.666 39.9996C18.666 51.7812 28.2164 61.3332 39.9996 61.3332C51.7812 61.3332 61.3332 51.7812 61.3332 39.9996C61.3332 28.2172 51.7812 18.666 39.9996 18.666ZM39.9996 55.9996C31.1628 55.9996 23.9996 48.8356 23.9996 39.9996C23.9996 31.1628 31.1628 23.9996 39.9996 23.9996C48.8356 23.9996 55.9996 31.1628 55.9996 39.9996C55.9996 48.8356 48.8356 55.9996 39.9996 55.9996Z" fill="#7C43FF"/>
<path d="M40.0004 29.334C34.1084 29.334 29.334 34.1092 29.334 40.0004C29.334 45.8908 34.11 50.6668 40.0004 50.6668C45.8908 50.6668 50.6668 45.8908 50.6668 40.0004C50.6668 34.1084 45.8908 29.334 40.0004 29.334ZM40.0004 45.334C38.5858 45.334 37.2292 44.7721 36.229 43.7718C35.2287 42.7716 34.6668 41.4149 34.6668 40.0004C34.6668 38.5858 35.2287 37.2292 36.229 36.229C37.2292 35.2287 38.5858 34.6668 40.0004 34.6668C41.4149 34.6668 42.7716 35.2287 43.7718 36.229C44.7721 37.2292 45.334 38.5858 45.334 40.0004C45.334 41.4149 44.7721 42.7716 43.7718 43.7718C42.7716 44.7721 41.4149 45.334 40.0004 45.334Z" fill="#7C43FF"/>
</svg>
