<svg width="40" height="40" viewBox="0 0 40 40" fill="none" xmlns="http://www.w3.org/2000/svg">
<path d="M12 17H8C6.89543 17 6 17.8954 6 19V32C6 33.1046 6.89543 34 8 34H12C13.1046 34 14 33.1046 14 32V19C14 17.8954 13.1046 17 12 17Z" fill="#7C43FF"/>
<path d="M22 20H18C16.8954 20 16 20.8954 16 22V32C16 33.1046 16.8954 34 18 34H22C23.1046 34 24 33.1046 24 32V22C24 20.8954 23.1046 20 22 20Z" fill="#7C43FF"/>
<path d="M32 16H28C26.8954 16 26 16.8954 26 18V32C26 33.1046 26.8954 34 28 34H32C33.1046 34 34 33.1046 34 32V18C34 16.8954 33.1046 16 32 16Z" fill="#7C43FF"/>
<path d="M9.63373 10.931L19.7034 14.9289C19.8477 14.986 20.0033 15.0092 20.158 14.9967C20.3128 14.9842 20.4626 14.9364 20.5956 14.8569L29.5879 9.50274L29.4691 10.1224C29.4444 10.2517 29.4458 10.3844 29.4729 10.5132C29.5001 10.6419 29.5527 10.764 29.6275 10.8726C29.7023 10.9811 29.798 11.074 29.9091 11.1457C30.0201 11.2175 30.1444 11.2668 30.2746 11.2908C30.337 11.3026 30.4004 11.3087 30.464 11.3088C30.6983 11.3084 30.9251 11.227 31.1054 11.0785C31.2857 10.93 31.4082 10.7237 31.4518 10.4952L31.9825 7.71768C32.0071 7.58844 32.0058 7.45565 31.9786 7.32692C31.9514 7.19818 31.8989 7.07605 31.824 6.9675C31.7492 6.85896 31.6535 6.76614 31.5425 6.69437C31.4314 6.62261 31.3072 6.57331 31.1769 6.54929L28.3785 6.02357C28.2469 5.99469 28.1108 5.99233 27.9783 6.01661C27.8458 6.0409 27.7195 6.09135 27.607 6.16497C27.4944 6.23859 27.3979 6.33387 27.3232 6.44519C27.2485 6.5565 27.197 6.68157 27.1718 6.81299C27.1467 6.94441 27.1484 7.0795 27.1768 7.21026C27.2052 7.34102 27.2598 7.46479 27.3373 7.57422C27.4148 7.68366 27.5137 7.77654 27.628 7.84737C27.7423 7.91819 27.8698 7.96552 28.0029 7.98654L28.167 8.01752L19.9874 12.888L10.3809 9.07396C10.1328 8.97562 9.8555 8.97913 9.61 9.08372C9.3645 9.18831 9.17092 9.38542 9.07184 9.63167C8.97276 9.87793 8.97629 10.1532 9.08167 10.3968C9.18704 10.6405 9.38563 10.8326 9.63373 10.931Z" fill="#7C43FF"/>
</svg>
