<svg width="24" height="24" viewBox="0 0 24 24" fill="none" xmlns="http://www.w3.org/2000/svg">
<path d="M20.6491 10.9401L18.8691 9.16009V6.63009C18.8691 6.23226 18.7111 5.85073 18.4297 5.56943C18.1484 5.28812 17.7669 5.13009 17.3691 5.13009H14.8391L13.0591 3.35009C12.9205 3.2098 12.7554 3.09841 12.5735 3.02239C12.3915 2.94637 12.1963 2.90723 11.9991 2.90723C11.8019 2.90723 11.6066 2.94637 11.4247 3.02239C11.2427 3.09841 11.0777 3.2098 10.9391 3.35009L9.15911 5.13009H6.62911C6.23128 5.13009 5.84975 5.28812 5.56845 5.56943C5.28714 5.85073 5.12911 6.23226 5.12911 6.63009V9.16009L3.34911 10.9401C3.20882 11.0787 3.09743 11.2438 3.02141 11.4257C2.94539 11.6077 2.90625 11.8029 2.90625 12.0001C2.90625 12.1973 2.94539 12.3926 3.02141 12.5745C3.09743 12.7565 3.20882 12.9215 3.34911 13.0601L5.12911 14.8401V17.3701C5.12911 17.768 5.28714 18.1495 5.56845 18.4308C5.84975 18.7121 6.23128 18.8701 6.62911 18.8701H9.15911L10.9391 20.6501C11.0777 20.7904 11.2427 20.9018 11.4247 20.9778C11.6066 21.0538 11.8019 21.093 11.9991 21.093C12.1963 21.093 12.3915 21.0538 12.5735 20.9778C12.7554 20.9018 12.9205 20.7904 13.0591 20.6501L14.8391 18.8701H17.3691C17.7669 18.8701 18.1484 18.7121 18.4297 18.4308C18.7111 18.1495 18.8691 17.768 18.8691 17.3701V14.8401L20.6491 13.0601C20.7894 12.9215 20.9008 12.7565 20.9768 12.5745C21.0528 12.3926 21.0919 12.1973 21.0919 12.0001C21.0919 11.8029 21.0528 11.6077 20.9768 11.4257C20.9008 11.2438 20.7894 11.0787 20.6491 10.9401ZM16.1191 10.0601L11.1891 15.0001C11.1198 15.0702 11.0373 15.1258 10.9463 15.1636C10.8553 15.2014 10.7576 15.2206 10.6591 15.2201C10.5603 15.2224 10.4621 15.2039 10.3709 15.1661C10.2796 15.1282 10.1973 15.0717 10.1291 15.0001L7.87911 12.7501C7.80835 12.6812 7.75211 12.5988 7.71372 12.5077C7.67532 12.4167 7.65554 12.3189 7.65554 12.2201C7.65554 12.1213 7.67532 12.0235 7.71372 11.9325C7.75211 11.8415 7.80835 11.7591 7.87911 11.6901C8.01973 11.5497 8.21036 11.4708 8.40911 11.4708C8.60786 11.4708 8.79848 11.5497 8.93911 11.6901L10.6591 13.4101L15.0591 9.00009C15.1997 8.85964 15.3903 8.78075 15.5891 8.78075C15.7878 8.78075 15.9785 8.85964 16.1191 9.00009C16.1898 9.06903 16.2461 9.15145 16.2845 9.24247C16.3229 9.3335 16.3427 9.43129 16.3427 9.53009C16.3427 9.62888 16.3229 9.72667 16.2845 9.8177C16.2461 9.90873 16.1898 9.99114 16.1191 10.0601Z" fill="#7C43FF"/>
</svg>
